<?xml version="1.0" standalone="no"?>
<!DOCTYPE svg PUBLIC "-//W3C//DTD SVG 20010904//EN"
 "http://www.w3.org/TR/2001/REC-SVG-20010904/DTD/svg10.dtd">
<svg version="1.0" xmlns="http://www.w3.org/2000/svg"
 width="464.000000pt" height="464.000000pt" viewBox="0 0 464.000000 464.000000"
 preserveAspectRatio="xMidYMid meet">
<metadata>
Created by potrace 1.14, written by Peter Selinger 2001-2017
</metadata>
<g transform="translate(0.000000,464.000000) scale(0.100000,-0.100000)"
fill="#000000" stroke="none">
<path d="M2 2318 l3 -2313 2318 0 2317 0 0 2313 0 2312 -2320 0 -2320 0 2
-2312z m1645 2031 c7 -1 10 -6 7 -10 -2 -4 4 -12 13 -18 10 -6 14 -11 8 -11
-5 0 -3 -5 5 -10 13 -8 15 -96 17 -685 0 -372 4 -679 8 -683 4 -4 10 -1 12 6
3 7 17 25 32 40 14 14 26 30 26 34 0 9 40 61 76 98 15 15 30 36 33 48 4 11 13
23 21 26 8 3 15 13 15 21 0 9 5 13 10 10 6 -3 10 1 10 10 0 8 7 18 15 21 8 4
15 13 15 22 0 9 10 26 23 37 13 11 26 28 30 38 4 10 11 16 16 13 5 -4 12 7 16
24 4 17 11 28 16 24 5 -3 9 2 9 11 0 8 7 18 15 21 8 4 15 13 15 21 0 8 5 11
10 8 6 -3 10 1 10 9 0 8 7 19 16 24 8 5 16 16 18 25 1 9 14 27 28 40 15 14 25
27 22 29 -2 3 9 19 26 36 16 18 30 35 30 39 0 5 12 19 25 32 14 12 22 28 18
34 -3 5 -1 7 5 3 6 -3 13 2 16 11 4 10 24 38 46 62 22 25 40 49 40 54 0 5 11
20 24 32 14 13 22 26 19 29 -4 3 -1 6 5 6 7 0 12 7 12 15 0 8 5 15 10 15 6 0
10 8 10 18 0 14 2 15 10 2 8 -13 10 -13 10 2 0 9 6 23 13 30 6 7 23 29 36 48
14 19 33 41 43 48 10 7 18 20 18 28 0 8 7 17 15 20 8 3 17 15 21 26 3 12 20
35 38 52 17 16 30 32 29 33 -9 9 0 22 17 28 11 3 20 13 20 21 0 8 6 14 14 14
8 0 16 6 19 13 3 9 133 12 608 12 587 0 605 -1 627 -20 12 -11 22 -25 22 -32
0 -7 5 -13 10 -13 6 0 10 -22 10 -50 0 -27 -4 -50 -10 -50 -5 0 -10 -7 -10
-15 0 -9 -7 -18 -15 -21 -8 -4 -15 -12 -15 -20 0 -7 -12 -26 -27 -41 -16 -15
-27 -31 -26 -35 2 -4 -4 -8 -12 -8 -8 0 -15 -7 -15 -15 0 -8 -9 -23 -20 -32
-11 -10 -20 -21 -20 -26 0 -4 -11 -18 -25 -31 -14 -13 -25 -28 -25 -35 0 -6
-5 -10 -11 -9 -6 2 -13 -5 -14 -14 -2 -9 -17 -31 -34 -47 -18 -17 -28 -31 -24
-31 4 0 -4 -11 -19 -24 -16 -13 -28 -28 -28 -34 0 -6 -15 -25 -32 -43 -18 -18
-32 -37 -30 -41 1 -5 -5 -11 -13 -14 -8 -4 -15 -11 -15 -18 0 -16 -37 -46 -46
-38 -4 4 -4 2 -1 -4 3 -6 -4 -22 -16 -34 -12 -13 -22 -29 -23 -35 -1 -7 -21
-32 -44 -56 -67 -70 -70 -75 -70 -95 0 -16 -2 -17 -10 -4 -8 13 -10 13 -10 -2
0 -10 -10 -26 -22 -38 -12 -11 -19 -20 -15 -20 4 0 -11 -18 -32 -39 -24 -24
-35 -42 -28 -45 7 -2 4 -5 -5 -5 -10 -1 -18 -6 -18 -11 0 -6 -11 -21 -25 -34
-14 -13 -25 -27 -25 -31 0 -4 -10 -17 -22 -29 -13 -12 -34 -38 -48 -59 -14
-20 -29 -37 -33 -37 -5 0 -5 -4 -2 -10 3 -5 1 -10 -4 -10 -6 0 -11 -6 -11 -14
0 -8 -9 -18 -20 -21 -11 -3 -20 -11 -20 -16 0 -5 -8 -18 -17 -28 -32 -35 -40
-47 -47 -69 -4 -12 -11 -22 -15 -22 -14 0 -61 -48 -61 -62 0 -7 -12 -24 -25
-37 -14 -12 -22 -28 -18 -34 3 -5 1 -7 -5 -3 -6 3 -13 -3 -17 -13 -3 -11 -15
-23 -26 -26 -10 -4 -19 -12 -19 -20 0 -7 -6 -20 -13 -27 -7 -7 -18 -21 -23
-30 -10 -18 -63 -82 -106 -128 -14 -16 -29 -38 -33 -50 -3 -11 -10 -18 -15
-15 -18 11 -18 -37 1 -56 10 -10 16 -19 12 -19 -4 0 3 -9 15 -20 12 -12 22
-28 22 -36 0 -8 4 -12 10 -9 5 3 10 2 10 -4 0 -6 12 -22 28 -38 15 -15 27 -30
27 -33 0 -5 14 -23 45 -57 8 -9 15 -19 15 -23 0 -3 12 -18 28 -33 15 -16 27
-35 27 -43 0 -8 5 -12 10 -9 6 3 10 2 10 -4 0 -5 8 -17 18 -27 9 -10 17 -20
17 -24 0 -3 12 -19 28 -35 15 -16 27 -33 27 -38 0 -4 5 -5 12 -1 6 4 8 3 5 -3
-3 -5 9 -27 28 -49 19 -21 37 -46 40 -55 3 -9 15 -21 28 -27 12 -6 16 -11 9
-11 -7 -1 -1 -13 15 -27 15 -15 27 -30 26 -35 -2 -5 4 -9 12 -9 8 0 15 -7 15
-15 0 -8 9 -23 20 -32 11 -10 20 -23 20 -31 0 -7 5 -10 10 -7 6 3 10 1 10 -4
0 -6 9 -20 20 -31 12 -12 18 -26 14 -32 -4 -7 -3 -8 4 -4 7 4 12 3 12 -2 0 -9
16 -28 81 -99 16 -18 29 -37 29 -43 0 -5 5 -10 12 -10 6 0 9 -3 5 -6 -3 -3 5
-16 19 -29 13 -12 24 -27 24 -34 0 -6 5 -11 12 -11 6 0 9 -3 5 -6 -7 -8 15
-33 25 -28 4 2 10 -5 13 -16 4 -12 20 -34 36 -51 16 -16 29 -34 29 -40 0 -6 7
-17 15 -25 8 -9 15 -12 15 -8 0 4 11 -8 25 -27 13 -19 28 -39 33 -45 5 -6 13
-21 17 -34 6 -17 9 -20 16 -9 7 11 9 11 9 -2 0 -9 12 -29 28 -46 33 -36 65
-80 61 -85 -6 -7 57 -65 65 -60 5 3 6 0 2 -6 -3 -6 5 -23 19 -38 14 -15 25
-31 25 -36 0 -5 5 -6 12 -2 6 4 8 3 5 -3 -4 -6 4 -22 18 -34 13 -13 25 -32 25
-41 0 -16 11 -22 31 -20 4 1 10 -10 13 -24 4 -14 11 -22 16 -19 6 3 10 0 10
-8 0 -8 9 -24 20 -37 11 -13 20 -30 20 -39 0 -14 2 -14 10 -1 8 13 10 13 10
-2 0 -9 6 -18 12 -20 20 -7 16 -117 -5 -133 -9 -6 -13 -15 -9 -19 4 -4 2 -7
-3 -6 -16 3 -55 -12 -55 -21 0 -5 -270 -9 -600 -9 -473 0 -599 3 -594 13 5 6
-1 5 -11 -3 -10 -8 -16 -10 -12 -4 4 7 -5 14 -23 17 -21 5 -31 14 -36 31 -3
14 -14 28 -24 31 -11 3 -21 14 -24 23 -3 9 -17 29 -30 43 -13 14 -27 35 -30
46 -4 12 -13 24 -21 27 -8 3 -15 13 -15 21 0 9 -4 13 -10 10 -5 -3 -10 -1 -10
5 0 6 -13 25 -30 42 -16 16 -30 34 -30 39 0 10 -8 21 -50 69 -14 16 -32 38
-40 50 -8 12 -23 31 -32 42 -10 12 -18 27 -18 33 0 7 -7 15 -15 19 -8 3 -15
13 -15 21 0 9 -4 14 -9 11 -4 -3 -16 10 -27 29 -10 18 -21 32 -25 29 -4 -2
-11 5 -14 17 -4 11 -14 29 -23 38 -35 36 -62 76 -62 91 0 13 -1 13 -10 0 -8
-13 -10 -12 -10 3 0 9 -9 25 -20 34 -11 10 -20 25 -20 34 0 9 -7 19 -15 23 -8
3 -15 13 -15 21 0 9 -4 13 -10 10 -5 -3 -10 -2 -10 4 0 5 -13 25 -30 43 -17
18 -30 38 -30 45 0 7 -4 13 -9 13 -5 0 -13 9 -16 20 -4 11 -11 18 -16 15 -5
-4 -9 0 -9 8 0 8 -7 17 -15 21 -8 3 -15 11 -15 18 0 7 -12 27 -27 43 -16 16
-28 32 -28 35 0 3 -10 16 -22 29 -12 13 -20 28 -17 33 3 5 2 7 -3 6 -4 -2 -8
0 -8 3 0 3 -12 17 -27 31 -16 14 -28 29 -28 34 0 5 -9 17 -20 27 -11 9 -20 24
-20 32 0 9 -4 13 -10 10 -5 -3 -10 0 -10 8 0 8 -7 17 -15 21 -8 3 -14 11 -13
17 2 6 -3 14 -9 16 -9 3 -13 -7 -14 -34 0 -21 -1 -332 -2 -691 -2 -568 -4
-654 -17 -662 -8 -5 -15 -15 -15 -21 0 -7 -11 -14 -25 -16 -14 -2 -26 -8 -28
-13 -5 -13 -979 -13 -987 0 -3 6 -12 10 -18 10 -7 0 -6 -4 3 -10 8 -5 11 -10
5 -10 -5 0 -28 16 -50 36 l-40 35 0 1976 c0 1572 3 1977 13 1980 6 3 12 11 12
19 0 8 7 14 15 14 8 0 15 4 15 9 0 5 8 11 18 14 18 4 1028 1 1049 -4z"/>
<path d="M794 4123 c4 -8 1 -13 -8 -13 -14 0 -16 -17 -16 -112 -2 -1389 1
-3472 4 -3476 3 -2 33 -4 68 -4 35 0 69 -5 77 -12 12 -8 13 -8 7 1 -10 18 55
18 73 1 10 -9 12 -9 7 -1 -8 15 53 15 73 -1 11 -8 13 -8 8 1 -10 15 52 15 72
-1 11 -8 13 -8 8 1 -10 15 52 15 72 -1 11 -8 13 -8 8 1 -10 15 52 15 72 -1 11
-8 13 -8 8 1 -10 15 52 15 72 -1 12 -9 13 -8 6 3 -6 11 -3 13 13 9 12 -4 24
-2 28 3 3 5 5 369 5 809 1 440 4 800 9 800 4 0 11 11 14 25 4 14 10 25 15 25
5 0 16 7 25 15 13 14 51 20 97 16 15 -1 101 -71 87 -71 -5 0 0 -9 10 -19 29
-33 42 -50 42 -56 0 -3 11 -16 24 -28 13 -12 26 -32 30 -44 4 -11 13 -24 21
-27 8 -3 15 -13 15 -21 0 -9 5 -13 10 -10 6 3 10 0 10 -8 0 -8 7 -17 15 -21 8
-3 15 -11 15 -18 0 -7 12 -27 27 -43 16 -16 28 -33 28 -38 0 -4 5 -11 11 -15
6 -4 16 -17 23 -29 6 -13 19 -23 29 -24 10 0 12 -3 5 -6 -8 -3 -3 -13 15 -30
15 -14 27 -29 27 -34 0 -5 5 -13 11 -17 6 -4 19 -21 29 -39 10 -18 22 -30 25
-28 4 3 12 -7 18 -20 7 -14 16 -25 22 -25 6 0 8 -4 5 -10 -3 -5 3 -17 15 -27
11 -10 20 -23 20 -30 0 -7 4 -13 9 -13 5 0 13 -9 16 -20 4 -11 11 -18 16 -15
5 4 9 1 9 -5 0 -6 6 -17 13 -24 6 -8 19 -24 27 -36 8 -12 25 -34 37 -48 12
-14 19 -31 16 -36 -3 -6 -3 -8 2 -4 9 8 45 -34 45 -52 0 -6 4 -8 10 -5 5 3 10
0 10 -7 0 -8 9 -21 20 -31 11 -9 20 -24 20 -32 0 -8 4 -15 9 -15 5 0 13 -9 16
-20 4 -11 11 -18 16 -15 5 4 9 -1 9 -9 0 -9 4 -16 9 -16 5 0 13 -9 16 -20 4
-11 11 -18 16 -15 5 4 10 1 10 -4 1 -6 2 -14 3 -19 0 -4 11 -18 23 -31 12 -13
19 -29 16 -35 -3 -6 -3 -8 2 -4 8 8 64 -50 65 -67 0 -5 12 -21 25 -34 14 -13
24 -26 21 -28 -3 -3 7 -16 21 -29 14 -13 22 -24 17 -24 -5 0 -2 -6 7 -13 9 -7
28 -30 43 -51 14 -21 26 -35 26 -30 1 5 7 -2 14 -16 8 -14 12 -28 10 -32 -3
-5 2 -8 11 -8 9 0 22 -15 30 -32 8 -18 15 -26 15 -18 1 8 6 3 12 -12 7 -20 17
-28 34 -28 13 0 26 1 27 3 2 1 12 -5 22 -13 13 -10 16 -11 11 -2 -6 11 3 13
45 11 30 -1 60 -7 68 -13 12 -9 13 -8 7 2 -6 11 3 13 45 11 30 -1 60 -7 68
-13 12 -9 13 -8 7 2 -6 11 3 13 45 11 30 -1 60 -7 68 -13 12 -9 13 -8 7 2 -6
11 3 13 45 11 30 -1 60 -7 68 -13 11 -8 13 -8 7 1 -10 18 55 18 73 0 10 -8 12
-8 7 0 -8 15 53 15 73 -1 11 -8 13 -8 8 1 -10 15 52 15 72 -1 12 -9 13 -8 6 3
-6 11 -2 13 21 8 16 -3 23 -4 17 -1 -7 3 -13 12 -13 20 0 8 -7 14 -15 14 -8 0
-14 3 -12 8 1 4 -10 21 -25 37 -16 16 -28 34 -28 40 0 6 -9 18 -20 28 -11 9
-20 24 -20 32 0 8 -4 15 -9 15 -13 0 -61 48 -61 62 0 7 -12 24 -25 37 -14 12
-22 28 -18 34 3 5 2 7 -4 4 -5 -3 -16 4 -24 15 -8 12 -22 30 -31 40 -10 10
-15 18 -11 18 4 0 -3 9 -15 20 -12 12 -22 24 -22 28 0 4 -17 26 -37 49 -50 55
-79 94 -76 105 2 4 -3 7 -10 5 -6 -1 -11 3 -10 9 1 7 -11 22 -27 34 -17 13
-30 27 -30 33 0 5 -11 20 -25 33 -14 13 -25 28 -25 33 0 6 -13 24 -30 41 -16
17 -30 35 -30 41 0 6 -4 7 -10 4 -5 -3 -10 1 -10 9 0 8 -8 22 -17 32 -10 10
-18 21 -18 25 0 4 -12 19 -27 33 -16 14 -28 30 -28 36 0 6 -4 8 -10 5 -5 -3
-10 1 -10 10 0 8 -9 23 -20 32 -11 10 -20 23 -20 31 0 7 -4 10 -10 7 -5 -3
-10 1 -10 10 0 8 -7 18 -15 21 -8 4 -15 11 -15 18 0 6 -20 33 -45 59 -24 26
-41 47 -38 47 4 0 -3 9 -15 20 -12 12 -22 28 -22 36 0 8 -4 12 -10 9 -6 -3
-10 -1 -10 5 0 6 -13 23 -28 38 -15 15 -28 31 -28 36 -1 9 -34 50 -84 103 -14
15 -26 31 -26 35 -1 4 -2 13 -3 19 0 5 -5 7 -11 4 -5 -3 -10 -2 -10 4 0 5 -8
17 -17 27 -10 10 -18 21 -18 24 0 4 -17 23 -38 43 -20 21 -33 37 -27 37 6 0
-2 12 -17 26 -15 14 -28 31 -28 37 -1 7 -6 11 -12 10 -6 -1 -14 11 -18 27 -4
17 -11 28 -16 24 -5 -3 -9 4 -9 15 0 12 -5 21 -10 21 -12 0 -9 22 5 32 6 5 5
8 -2 8 -7 0 -13 5 -13 11 0 5 5 7 10 4 6 -4 10 6 10 22 0 22 2 25 10 13 8 -13
10 -12 10 3 0 9 9 26 20 37 11 11 20 22 20 25 0 6 14 24 43 56 9 10 17 22 17
25 0 4 12 17 28 30 15 13 24 24 20 24 -8 0 11 26 42 58 8 9 15 20 15 26 1 6 6
10 13 8 7 -1 12 3 12 8 0 6 11 21 25 34 14 13 25 28 25 33 0 5 13 24 30 43 16
18 32 41 35 51 3 10 15 21 26 24 10 4 19 12 19 19 0 7 18 32 39 56 22 25 38
47 35 51 -2 4 4 10 15 14 17 5 30 23 30 40 1 3 12 16 26 29 14 13 25 28 25 34
0 5 19 30 43 54 48 51 77 89 77 100 0 4 17 25 38 46 40 43 45 49 82 101 14 19
33 43 43 53 10 10 15 24 11 31 -4 7 -4 9 1 5 9 -8 74 61 75 80 0 6 4 12 9 12
5 0 13 9 16 20 4 11 10 18 14 16 4 -3 15 8 25 25 9 16 21 29 27 29 5 0 9 7 9
15 0 8 13 28 29 44 16 16 26 32 23 35 -3 3 0 6 6 6 7 0 12 6 12 14 0 8 9 17
19 21 11 3 23 16 27 28 4 12 20 34 35 50 16 16 29 35 29 43 0 9 4 13 8 10 5
-3 15 4 23 16 8 11 20 26 27 34 6 7 12 16 12 21 0 5 9 17 21 26 27 23 23 26
-34 28 -30 2 -44 6 -40 13 4 6 0 5 -9 -2 -20 -16 -161 -15 -151 2 4 6 0 5 -9
-2 -20 -16 -161 -15 -151 2 4 6 0 6 -8 -1 -21 -17 -242 -16 -232 1 3 6 0 5 -8
-1 -7 -8 -38 -13 -71 -13 -34 0 -58 -4 -58 -11 0 -5 -5 -7 -12 -3 -6 4 -8 3
-5 -4 4 -5 -6 -23 -23 -39 -16 -15 -30 -34 -30 -41 0 -7 -7 -15 -15 -18 -8 -4
-15 -11 -15 -18 0 -6 -14 -25 -30 -43 -17 -18 -30 -37 -30 -42 0 -6 -4 -11 -9
-11 -5 0 -13 -9 -16 -20 -4 -11 -11 -18 -16 -15 -5 4 -9 0 -9 -8 0 -8 -12 -27
-26 -43 -14 -16 -32 -41 -40 -56 -8 -16 -22 -28 -32 -29 -9 0 -12 -3 -5 -5 7
-3 0 -16 -18 -35 -16 -16 -29 -34 -29 -40 0 -5 -11 -20 -25 -33 -14 -13 -25
-28 -25 -35 0 -6 -4 -11 -9 -11 -5 0 -20 -17 -32 -37 -24 -39 -26 -42 -59 -82
-11 -13 -20 -28 -20 -33 0 -5 -4 -6 -10 -3 -5 3 -10 -1 -10 -10 0 -9 -11 -26
-25 -39 -14 -13 -25 -27 -25 -32 0 -5 -9 -17 -20 -27 -11 -9 -20 -24 -20 -32
0 -9 -4 -13 -10 -10 -5 3 -10 2 -10 -4 0 -9 -23 -39 -62 -81 -9 -10 -19 -27
-23 -39 -3 -12 -10 -21 -15 -21 -5 0 -12 -9 -15 -20 -4 -11 -11 -18 -16 -15
-5 4 -9 -1 -9 -9 0 -9 -4 -16 -10 -16 -5 0 -12 -11 -16 -25 -3 -13 -11 -23
-17 -22 -6 1 -11 -3 -12 -8 0 -11 -11 -25 -57 -77 -16 -17 -28 -35 -28 -40 0
-5 -13 -23 -30 -40 -16 -16 -30 -34 -30 -39 0 -11 -9 -23 -52 -71 -16 -17 -28
-35 -28 -40 0 -5 -4 -7 -9 -4 -5 3 -11 -4 -15 -17 -3 -12 -28 -47 -55 -77 -28
-30 -51 -59 -51 -64 0 -14 -64 -73 -89 -81 -28 -8 -103 4 -95 16 3 5 -1 9 -9
9 -7 0 -23 13 -35 29 l-21 29 0 797 c0 604 -3 801 -12 809 -9 8 -10 8 -5 -1 5
-10 -4 -12 -33 -11 -26 1 -38 5 -34 12 4 6 0 5 -8 -1 -21 -17 -242 -16 -232 1
4 7 1 6 -8 -1 -20 -16 -298 -15 -318 1 -11 8 -13 8 -7 -1z"/>
</g>
</svg>
